<svg xmlns="http://www.w3.org/2000/svg" viewBox="0 0 1000 225" role="img" aria-labelledby="title desc">
  <title id="title">Litecoin AirGap banner</title>
  <desc id="desc">Litecoin logo next to the AirGap wordmark on a light gradient background.</desc>
  <defs>
    <linearGradient id="background" x1="0" y1="0" x2="1" y2="1">
      <stop offset="0" stop-color="#f8fbff"/>
      <stop offset="0.48" stop-color="#f4f8fc"/>
      <stop offset="1" stop-color="#d8f7f1"/>
    </linearGradient>
    <filter id="softShadow" x="-30%" y="-30%" width="160%" height="160%">
      <feDropShadow dx="0" dy="12" stdDeviation="14" flood-color="#0f2742" flood-opacity="0.14"/>
    </filter>
  </defs>
  <rect width="1000" height="225" fill="url(#background)"/>
  <g transform="translate(233 36) scale(1.86)" filter="url(#softShadow)">
    <circle cx="41.3" cy="41.3" r="36.83" fill="#fff"/>
    <path fill="#345d9d" d="M41.3,0A41.3,41.3,0,1,0,82.6,41.3h0A41.18,41.18,0,0,0,41.54,0ZM42,42.7,37.7,57.2h23a1.16,1.16,0,0,1,1.2,1.12v.38l-2,6.9a1.49,1.49,0,0,1-1.5,1.1H23.2l5.9-20.1-6.6,2L24,44l6.6-2,8.3-28.2a1.51,1.51,0,0,1,1.5-1.1h8.9a1.16,1.16,0,0,1,1.2,1.12v.38L43.5,38l6.6-2-1.4,4.8Z"/>
  </g>
  <line x1="432" y1="76" x2="432" y2="149" stroke="#c8d1dc" stroke-width="1.5"/>
  <g transform="translate(502 76)" fill="#05070a">
    <path d="M31.9 3.2 0 16.5v28.7c0 15.4 11.6 30 31.9 39.8 20.3-9.8 31.9-24.4 31.9-39.8V16.5L31.9 3.2Zm0 8.3 24.2 10.1v23.6c0 11.1-8.2 22.1-20.5 29.9V49.6h10.6V40H26v31.2C14.7 63.6 7.7 53.2 7.7 45.2V21.6l24.2-10.1Z"/>
    <text x="86" y="55" font-family="Inter, Arial, Helvetica, sans-serif" font-size="54" font-weight="600" letter-spacing="0">AirGap</text>
  </g>
</svg>
